HIERARCHY
ROOT SimulationBone
{
	OFFSET 0.000000 0.000000 0.000000
	CHANNELS 6 Xposition Yposition Zposition Zrotation Yrotation Xrotation 
	JOINT Hips
	{
		OFFSET 0.000000 0.000000 0.000000
		CHANNELS 6 Xposition Yposition Zposition Zrotation Yrotation Xrotation 
		JOINT RightUpLeg
		{
			OFFSET 0.103456 1.857840 10.548501
			CHANNELS 3 Zrotation Yrotation Xrotation
			JOINT RightLeg
			{
				OFFSET 43.499992 -0.000038 -0.000006
				CHANNELS 3 Zrotation Yrotation Xrotation
				JOINT RightFoot
				{
					OFFSET 42.372196 0.000031 0.000002
					CHANNELS 3 Zrotation Yrotation Xrotation
					JOINT RightToe
					{
						OFFSET 17.299974 -0.000010 -0.000017
						CHANNELS 3 Zrotation Yrotation Xrotation
						End Site
						{
							OFFSET 0.000000 0.000000 0.000000
						}
					}
				}
			}
		}
		JOINT LeftUpLeg
		{
			OFFSET 0.103462 1.857831 -10.548510
			CHANNELS 3 Zrotation Yrotation Xrotation
			JOINT LeftLeg
			{
				OFFSET 43.500046 -0.000015 0.000008
				CHANNELS 3 Zrotation Yrotation Xrotation
				JOINT LeftFoot
				{
					OFFSET 42.372265 -0.000015 0.000004
					CHANNELS 3 Zrotation Yrotation Xrotation
					JOINT LeftToe
					{
						OFFSET 17.299995 -0.000004 0.000013
						CHANNELS 3 Zrotation Yrotation Xrotation
						End Site
						{
							OFFSET 0.000000 0.000000 0.000000
						}
					}
				}
			}
		}
		JOINT Spine
		{
			OFFSET 6.901966 -2.603716 -0.000002
			CHANNELS 3 Zrotation Yrotation Xrotation
			JOINT Spine1
			{
				OFFSET 12.588102 -0.000001 0.000005
				CHANNELS 3 Zrotation Yrotation Xrotation
				JOINT Spine2
				{
					OFFSET 12.343201 -0.000023 -0.000011
					CHANNELS 3 Zrotation Yrotation Xrotation
					JOINT Neck
					{
						OFFSET 25.832901 0.000011 0.000007
						CHANNELS 3 Zrotation Yrotation Xrotation
						JOINT Head
						{
							OFFSET 11.766600 -0.000002 0.000002
							CHANNELS 3 Zrotation Yrotation Xrotation
							End Site
							{
								OFFSET 0.000000 0.000000 0.000000
							}
						}
					}
					JOINT RightShoulder
					{
						OFFSET 19.745907 -1.480350 6.000119
						CHANNELS 3 Zrotation Yrotation Xrotation
						JOINT RightArm
						{
							OFFSET 11.284122 -0.000013 -0.000023
							CHANNELS 3 Zrotation Yrotation Xrotation
							JOINT RightForeArm
							{
								OFFSET 33.000057 0.000005 0.000025
								CHANNELS 3 Zrotation Yrotation Xrotation
								JOINT RightHand
								{
									OFFSET 25.199997 0.000020 0.000019
									CHANNELS 3 Zrotation Yrotation Xrotation
									End Site
									{
										OFFSET 0.000000 0.000000 0.000000
									}
								}
							}
						}
					}
					JOINT LeftShoulder
					{
						OFFSET 19.746096 -1.480352 -6.000062
						CHANNELS 3 Zrotation Yrotation Xrotation
						JOINT LeftArm
						{
							OFFSET 11.284150 0.000007 -0.000012
							CHANNELS 3 Zrotation Yrotation Xrotation
							JOINT LeftForeArm
							{
								OFFSET 33.000092 0.000019 0.000012
								CHANNELS 3 Zrotation Yrotation Xrotation
								JOINT LeftHand
								{
									OFFSET 25.199797 0.000118 0.000427
									CHANNELS 3 Zrotation Yrotation Xrotation
									End Site
									{
										OFFSET 0.000000 0.000000 0.000000
									}
								}
							}
						}
					}
				}
			}
		}
	}
}
MOTION
Frames: 10
Frame Time: 0.016667
90.561252 0.000000 47.974572 0.000000 96.992356 0.000000 -0.723368 90.107239 0.730096 90.386272 0.477555 179.571819 173.223802 4.571899 172.219832 -33.355651 4.288461 -2.699198 94.704349 1.670690 -0.764685 21.454560 0.003117 0.000020 148.092270 3.839097 -171.906531 -58.344711 -2.606052 8.878869 76.851143 -4.444339 6.473786 21.454555 -0.003095 0.000001 6.758397 -0.267871 -0.356931 3.505649 -0.524926 -0.721698 3.187572 -0.529421 -0.718511 6.852275 2.187059 2.390412 -9.347487 -1.756472 3.305489 175.476070 -73.719601 3.271981 -2.338625 54.762119 2.556339 -39.783607 -13.712028 1.395910 2.097170 -12.431046 -8.950226 -143.134790 84.079358 38.803189 -11.435582 -64.582367 -35.510097 -25.679303 5.290420 -0.520126 8.387525 3.804661 7.812336 
90.951533 0.000000 45.124200 0.000000 99.002763 0.000000 -1.212394 90.825226 0.643230 89.442910 0.991794 178.889501 174.598720 3.634721 172.544376 -31.357125 4.339329 -2.287581 92.982461 1.334270 -1.154091 21.454554 0.003099 0.000017 147.209109 3.187762 -172.168648 -52.731130 -2.492673 8.345521 76.439522 -4.245223 5.814650 21.454558 -0.003112 -0.000001 6.608015 -0.182453 -0.632480 3.205117 -0.347573 -1.269688 2.887116 -0.355382 -1.267578 6.037951 3.804820 2.101553 -9.661089 -2.597628 3.537834 170.771837 -73.247129 8.112238 -1.991829 55.486772 8.735430 -40.423039 -14.250153 1.424837 1.588932 -10.428532 -7.668385 -143.004329 83.036130 38.975615 -1.925031 -63.220738 -47.952453 -26.429087 5.933092 -0.578813 6.533785 0.631127 0.286664 
91.302803 0.000000 42.312347 0.000000 100.779699 0.000000 -1.669541 91.370247 0.581323 88.552809 1.020554 178.670058 175.686932 2.921494 172.733818 -29.878952 4.326303 -1.537692 91.156414 0.774790 -1.412693 21.454553 0.003104 0.000017 146.422480 3.149689 -172.565453 -47.307043 -2.453196 7.798707 75.922012 -3.841670 5.830529 21.454558 -0.003110 -0.000001 6.504314 -0.191777 -0.980511 2.998872 -0.358509 -1.965577 2.680987 -0.370511 -1.963390 4.746092 5.047151 1.877049 -9.785846 -3.178081 3.737430 166.865974 -73.387489 12.111079 -2.724319 55.967975 14.262429 -41.989676 -13.965132 1.471598 1.256255 -9.932143 -6.038232 -140.314989 82.202671 41.728977 6.562477 -61.606166 -58.775415 -27.774437 6.581936 -0.640702 5.424452 -1.096629 -6.665925 
91.616550 0.000000 39.538488 0.000000 102.332142 0.000000 -2.106925 91.761917 0.534610 87.699275 0.793226 178.808327 176.536024 2.308535 172.861352 -28.797781 4.288118 -0.589957 89.398517 0.080871 -1.594663 21.454553 0.003117 0.000018 145.661333 3.476274 -173.144318 -42.139590 -2.435223 7.247227 75.437534 -3.371966 6.066526 21.454555 -0.003099 -0.000001 6.427698 -0.254078 -1.373685 2.848292 -0.474900 -2.753108 2.530591 -0.491641 -2.750199 3.174555 6.181555 1.684002 -9.788177 -3.751625 3.987658 163.378115 -73.867761 15.661352 -4.322710 56.121468 19.208524 -44.288042 -13.391916 1.515155 0.825215 -10.267462 -4.041930 -136.711992 81.484547 45.407347 14.203624 -59.678651 -68.066112 -29.504970 7.168547 -0.708846 4.702942 -1.552664 -12.257102 
91.894263 0.000000 36.802098 0.000000 103.670437 0.000000 -2.534445 92.019852 0.491433 86.844820 0.532605 179.190468 177.190256 1.668902 172.993283 -27.989141 4.270436 0.417590 87.881420 -0.661279 -1.763467 21.454555 0.003126 0.000018 144.855703 3.916903 -173.945479 -37.302681 -2.390887 6.710225 75.119068 -2.982190 6.072492 21.454553 -0.003088 -0.000000 6.358144 -0.327695 -1.784859 2.713094 -0.614308 -3.576801 2.395653 -0.636006 -3.573034 1.516772 7.476235 1.486401 -9.738669 -4.571685 4.374480 160.248026 -74.402203 18.835951 -6.565731 55.823189 23.669871 -47.130773 -13.065487 1.561606 0.051265 -10.743356 -1.675370 -133.284184 80.809409 48.911161 21.035006 -57.366183 -75.767498 -31.409143 7.625111 -0.777026 4.127276 -0.942691 -15.614014 
92.137433 0.000000 34.102650 0.000000 104.805572 0.000000 -2.950239 92.155265 0.445271 85.985672 0.406016 179.707956 177.726437 0.908408 173.236752 -27.357173 4.283704 1.338775 86.741030 -1.358990 -1.982438 21.454555 0.003121 0.000017 144.007462 4.270885 -175.006098 -32.840572 -2.257396 6.265924 75.055252 -2.815955 5.560395 21.454551 -0.003084 0.000000 6.287486 -0.378554 -2.189616 2.575798 -0.709361 -4.387010 2.258690 -0.735941 -4.382661 -0.073271 9.098410 1.249970 -9.697354 -5.799400 4.947613 157.631625 -74.771765 21.488806 -9.256549 55.004163 27.560580 -50.377466 -13.280912 1.659203 -1.146775 -10.738097 1.063871 -130.612982 80.164581 51.650624 27.057161 -54.671463 -81.696551 -33.255989 7.882336 -0.832001 3.636700 0.371713 -16.249149 
92.347547 0.000000 31.439619 0.000000 105.748652 0.000000 -3.311984 92.145767 0.416027 85.289214 0.378081 -179.703380 178.356607 0.066995 173.875579 -26.927460 4.192511 1.989477 85.962520 -1.884035 -2.282474 21.454557 0.003113 0.000016 143.392021 4.551297 -176.370470 -28.661867 -1.910455 6.207479 75.183067 -2.987714 4.876253 21.454551 -0.003087 0.000000 6.257051 -0.402032 -2.574208 2.518219 -0.749238 -5.156460 2.201499 -0.780455 -5.151865 -1.581441 10.812662 0.979272 -9.657778 -7.227708 5.606203 155.631077 -75.023593 23.516128 -12.274966 53.892007 29.994648 -54.018575 -13.380955 1.806480 -2.349475 -9.993378 4.222761 -128.115206 79.647588 54.209960 32.437452 -51.859819 -85.490962 -34.739929 7.861361 -0.862306 3.353845 1.451571 -15.319235 
92.526096 0.000000 28.812479 0.000000 106.510540 0.000000 -3.584062 91.966599 0.420951 84.886743 0.373038 -179.113864 179.243083 -0.788028 175.080260 -26.729265 3.895207 2.240874 85.511321 -2.144232 -2.677713 21.454560 0.003111 0.000016 143.225848 4.816831 -178.007913 -24.711997 -1.315944 6.737291 75.426599 -3.484665 4.540016 21.454552 -0.003094 -0.000001 6.297496 -0.402638 -2.923260 2.601193 -0.740891 -5.854753 2.284884 -0.776310 -5.850202 -2.969972 12.335497 0.714356 -9.651037 -8.576859 6.238161 154.127414 -75.281588 25.033917 -15.457436 52.723801 30.315545 -58.012327 -12.728965 1.919406 -3.090492 -8.490475 7.626951 -125.018591 79.354640 57.364412 37.514401 -49.237896 -87.200755 -35.634918 7.567122 -0.863239 3.334933 1.487464 -14.036671 
92.674568 0.000000 26.220704 0.000000 107.101635 0.000000 -3.793098 91.617126 0.432011 84.584105 0.353624 -178.669626 -179.754337 -1.571904 176.407653 -26.675363 3.563056 2.230349 85.428132 -2.228815 -3.148580 21.454563 0.003112 0.000016 143.226908 5.042000 -179.581273 -21.236603 -0.712479 7.411847 75.789233 -3.815640 5.145503 21.454553 -0.003098 -0.000002 6.347048 -0.394350 -3.204223 2.701425 -0.715323 -6.416718 2.385482 -0.754114 -6.412316 -3.983360 13.591965 0.552199 -9.959923 -9.639982 6.846970 152.436993 -75.721077 26.729006 -18.763956 51.712526 29.365523 -62.145438 -11.706029 1.987953 -3.323906 -6.676027 10.174850 -120.615207 79.328816 61.823288 42.524227 -46.877087 -88.168513 -36.109392 7.348764 -0.858943 3.479848 0.867319 -12.235409 
92.794452 0.000000 23.663770 0.000000 107.531755 0.000000 -3.962610 91.108330 0.422425 84.207112 0.299542 -178.500302 -178.754523 -2.210284 177.351248 -26.684704 3.383010 2.142048 85.707644 -2.255405 -3.650289 21.454560 0.003110 0.000017 143.109130 5.157947 179.280290 -18.529183 -0.302224 7.693502 76.285607 -3.567269 6.876618 21.454553 -0.003095 -0.000000 6.349985 -0.392257 -3.390180 2.708227 -0.706705 -6.788557 2.392537 -0.747720 -6.784206 -4.409285 14.586271 0.573342 -10.781532 -10.304268 7.460429 149.915320 -76.411831 29.250881 -22.222950 51.006188 28.044957 -66.179206 -10.811196 2.077486 -3.271214 -5.054818 10.983840 -114.480876 79.530079 68.009233 47.387156 -44.657032 -89.455985 -36.385076 7.487060 -0.874086 3.687319 0.205721 -9.698591 
